<?xml version="1.0" standalone="no"?>
<!DOCTYPE svg PUBLIC "-//W3C//DTD SVG 20010904//EN"
 "http://www.w3.org/TR/2001/REC-SVG-20010904/DTD/svg10.dtd">
<svg version="1.0" xmlns="http://www.w3.org/2000/svg"
 width="499.000000pt" height="499.000000pt" viewBox="0 0 499.000000 499.000000"
 preserveAspectRatio="xMidYMid meet">

<g transform="translate(0.000000,499.000000) scale(0.100000,-0.100000)"
fill="#000000" stroke="none">
<path d="M3974 4317 c-32 -34 -76 -84 -97 -110 -21 -25 -45 -53 -53 -62 -9 -9
-48 -55 -87 -103 -40 -48 -78 -94 -85 -102 -57 -67 -72 -86 -72 -92 0 -5 -4
-8 -10 -8 -6 0 -11 89 -12 233 l-3 232 -1014 3 c-681 1 -1018 -1 -1025 -8 -7
-7 -12 -270 -14 -766 -5 -830 1 -751 -57 -815 -19 -20 -19 -63 0 -79 8 -7 13
-16 10 -20 -2 -4 9 -19 25 -33 27 -25 29 -25 35 -7 3 10 -1 30 -10 44 -20 30
0 50 22 20 12 -17 13 -16 7 12 -5 29 -4 30 52 47 31 10 58 16 59 15 11 -15 25
-81 25 -120 0 -43 -3 -50 -25 -58 -23 -9 -26 -15 -24 -55 3 -43 4 -45 43 -58
55 -18 64 -53 47 -189 l-12 -100 27 -54 c15 -30 35 -61 46 -70 36 -33 30 -36
-137 -70 -231 -47 -360 -72 -402 -79 -38 -6 -92 -34 -66 -35 6 0 49 8 95 19
46 10 130 28 188 40 131 27 248 53 365 80 50 12 100 21 111 21 11 0 29 7 40
15 12 8 24 12 27 9 3 -3 30 1 60 10 31 9 64 13 74 10 13 -4 14 -3 5 4 -11 8
-11 10 1 15 9 3 16 24 19 54 11 111 96 231 198 281 48 23 67 26 155 26 90 0
106 -3 158 -28 63 -31 82 -59 74 -109 -2 -15 0 -30 5 -33 17 -11 69 19 84 47
19 38 52 38 84 -1 25 -30 66 -41 100 -27 8 4 26 -2 39 -14 20 -16 22 -23 14
-42 -13 -29 13 -85 45 -93 33 -9 32 -71 -2 -84 -27 -10 -43 -68 -27 -98 15
-28 -29 -68 -56 -53 -28 14 -90 -15 -98 -46 -8 -34 -62 -33 -75 2 -13 34 -23
32 -54 -15 -14 -22 -31 -40 -36 -40 -6 0 -10 -6 -10 -14 0 -8 -10 -18 -22 -22
-13 -3 -30 -12 -38 -19 -27 -22 -139 -55 -188 -55 -57 0 -146 28 -195 62 -39
26 -103 99 -112 127 -5 18 -9 18 -61 4 -31 -8 -81 -26 -111 -40 -31 -13 -82
-29 -115 -33 -32 -5 -78 -15 -101 -23 -23 -9 -82 -27 -132 -42 -49 -14 -105
-31 -124 -37 -19 -6 -80 -23 -135 -39 -186 -52 -240 -69 -247 -76 -10 -12 -97
-286 -130 -411 -10 -39 -28 -107 -40 -150 -56 -209 -58 -222 -38 -232 32 -18
46 -11 63 33 9 23 16 46 16 50 0 9 69 173 112 267 46 101 73 160 103 225 15
33 39 85 54 116 l26 56 0 -346 c0 -190 4 -358 8 -373 8 -28 43 -46 59 -30 5 5
16 90 24 188 8 99 21 224 29 279 8 55 20 139 26 188 6 48 15 87 20 87 5 0 9
-162 9 -379 0 -336 2 -380 16 -385 20 -8 1998 -8 2018 0 13 5 16 22 16 84 0
95 4 106 44 127 71 36 205 132 270 193 62 59 186 201 186 214 0 2 17 31 38 63
37 56 113 206 145 288 73 185 124 457 134 716 7 173 2 187 -48 150 -15 -11
-31 -21 -33 -21 -3 0 -29 -18 -58 -40 -49 -37 -87 -53 -73 -30 13 22 55 305
63 431 16 247 1 631 -33 844 -25 153 -63 338 -96 464 -28 108 -42 141 -59 141
-4 0 -34 -28 -66 -63z m-1074 -142 c0 -13 -45 -15 -345 -15 -300 0 -345 2
-345 15 0 13 45 15 345 15 300 0 345 -2 345 -15z m1027 -302 c-3 -10 -5 -4 -5
12 0 17 2 24 5 18 2 -7 2 -21 0 -30z m-10 -110 c-3 -10 -5 -2 -5 17 0 19 2 27
5 18 2 -10 2 -26 0 -35z m-1057 -143 c0 -5 -9 -10 -20 -10 -11 0 -20 5 -20 10
0 6 9 10 20 10 11 0 20 -4 20 -10z m90 0 c0 -5 -9 -10 -20 -10 -11 0 -20 5
-20 10 0 6 9 10 20 10 11 0 20 -4 20 -10z m85 -10 c3 -5 -3 -10 -14 -10 -12 0
-21 5 -21 10 0 6 6 10 14 10 8 0 18 -4 21 -10z m-255 -4 c0 -2 -9 -6 -20 -9
-11 -3 -20 -1 -20 4 0 5 9 9 20 9 11 0 20 -2 20 -4z m330 -16 c8 -5 12 -11 9
-14 -3 -3 -14 1 -25 9 -21 16 -8 20 16 5z m-414 -9 c-8 -12 -46 -21 -46 -11 0
9 18 18 38 19 7 1 11 -3 8 -8z m1201 -28 c-3 -10 -5 -4 -5 12 0 17 2 24 5 18
2 -7 2 -21 0 -30z m-712 -3 c3 -5 2 -10 -4 -10 -5 0 -13 5 -16 10 -3 6 -2 10
4 10 5 0 13 -4 16 -10z m-579 -15 c-26 -19 -42 -19 -26 0 7 8 20 15 29 15 13
-1 13 -3 -3 -15z m1281 -57 c-3 -7 -5 -2 -5 12 0 14 2 19 5 13 2 -7 2 -19 0
-25z m-1347 13 c0 -5 -7 -12 -16 -15 -24 -9 -28 -7 -14 9 14 17 30 20 30 6z
m416 -51 c10 -24 23 -40 33 -40 9 0 33 -9 54 -20 l38 -20 38 22 38 22 41 -35
c46 -38 49 -47 26 -91 -15 -28 -14 -33 5 -72 11 -22 22 -48 25 -57 2 -9 19
-19 37 -23 49 -9 59 -23 59 -78 0 -48 -1 -49 -43 -68 -39 -18 -44 -24 -61 -79
-16 -55 -16 -61 -1 -90 18 -36 13 -51 -34 -95 l-30 -29 -35 21 -35 21 -43 -21
c-24 -12 -49 -24 -57 -28 -8 -3 -21 -25 -30 -48 l-15 -42 -56 0 -57 0 -11 38
c-10 33 -18 40 -71 60 l-60 23 -39 -20 -39 -20 -40 37 -40 37 17 40 c17 40 17
40 -12 96 -24 47 -35 58 -68 69 l-40 13 0 58 0 58 40 12 c32 10 40 18 46 43 3
17 13 43 22 58 15 26 15 30 -7 68 l-23 41 39 40 39 39 41 -16 c39 -15 42 -15
96 10 46 22 57 32 62 59 11 47 11 47 76 47 l59 0 16 -40z m-491 -20 c-10 -11
-20 -18 -23 -15 -7 6 18 35 31 35 5 0 2 -9 -8 -20z m-55 -75 c-7 -9 -15 -13
-18 -10 -3 2 1 11 8 20 7 9 15 13 18 10 3 -2 -1 -11 -8 -20z m1457 -37 c-3 -7
-5 -2 -5 12 0 14 2 19 5 13 2 -7 2 -19 0 -25z m-1497 -39 c-7 -11 -14 -18 -17
-15 -8 8 5 36 17 36 7 0 7 -6 0 -21z m1070 0 c0 -6 -4 -7 -10 -4 -5 3 -10 11
-10 16 0 6 5 7 10 4 6 -3 10 -11 10 -16z m417 -11 c-3 -7 -5 -2 -5 12 0 14 2
19 5 13 2 -7 2 -19 0 -25z m-10 -50 c-3 -7 -5 -2 -5 12 0 14 2 19 5 13 2 -7 2
-19 0 -25z m-377 -28 c-1 -12 -4 -11 -15 4 -8 10 -12 23 -8 29 7 11 23 -12 23
-33z m-1130 10 c0 -11 -4 -20 -9 -20 -5 0 -7 9 -4 20 3 11 7 20 9 20 2 0 4 -9
4 -20z m-10 -79 c0 -11 -4 -23 -10 -26 -6 -4 -10 5 -10 19 0 14 5 26 10 26 6
0 10 -9 10 -19z m1147 -13 c-3 -7 -5 -2 -5 12 0 14 2 19 5 13 2 -7 2 -19 0
-25z m350 -30 c-3 -8 -6 -5 -6 6 -1 11 2 17 5 13 3 -3 4 -12 1 -19z m-10 -40
c-3 -8 -6 -5 -6 6 -1 11 2 17 5 13 3 -3 4 -12 1 -19z m-1497 -9 c0 -11 -4 -17
-10 -14 -5 3 -10 13 -10 21 0 8 5 14 10 14 6 0 10 -9 10 -21z m1157 -11 c-3
-7 -5 -2 -5 12 0 14 2 19 5 13 2 -7 2 -19 0 -25z m-1397 8 c0 -9 -40 -13 -46
-5 -3 5 6 9 20 9 14 0 26 -2 26 -4z m-95 -16 c-3 -5 -13 -10 -21 -10 -8 0 -12
5 -9 10 3 6 13 10 21 10 8 0 12 -4 9 -10z m178 3 c-7 -2 -19 -2 -25 0 -7 3 -2
5 12 5 14 0 19 -2 13 -5z m1644 -15 c-3 -8 -6 -5 -6 6 -1 11 2 17 5 13 3 -3 4
-12 1 -19z m-1582 -8 c3 -5 1 -10 -4 -10 -6 0 -11 5 -11 10 0 6 2 10 4 10 3 0
8 -4 11 -10z m-325 -20 c-20 -13 -33 -13 -25 0 3 6 14 10 23 10 15 0 15 -2 2
-10z m430 -32 c0 -19 -2 -20 -10 -8 -13 19 -13 30 0 30 6 0 10 -10 10 -22z
m1143 2 c-3 -12 -8 -19 -11 -16 -5 6 5 36 12 36 2 0 2 -9 -1 -20z m-1372 -14
c14 -29 66 -47 97 -33 32 14 66 -17 58 -55 -9 -44 11 -85 45 -92 25 -5 29 -10
29 -40 0 -27 -5 -35 -24 -40 -32 -8 -53 -59 -40 -95 9 -22 7 -30 -12 -50 -17
-18 -26 -21 -39 -13 -26 14 -74 -8 -91 -40 -19 -37 -66 -39 -82 -4 -13 30 -76
53 -97 36 -10 -9 -20 -7 -39 5 -30 20 -30 20 -16 45 13 23 -21 85 -50 93 -27
7 -27 61 0 80 29 20 44 70 30 97 -10 18 -8 26 10 45 18 19 27 22 46 15 30 -12
94 16 94 40 0 23 9 30 42 30 20 0 32 -7 39 -24z m-271 -17 c-7 -11 -14 -19
-16 -16 -7 7 7 37 17 37 6 0 5 -9 -1 -21z m1957 -31 c-3 -8 -6 -5 -6 6 -1 11
2 17 5 13 3 -3 4 -12 1 -19z m-1437 -18 c0 -5 -2 -10 -4 -10 -3 0 -8 5 -11 10
-3 6 -1 10 4 10 6 0 11 -4 11 -10z m1100 -11 c-7 -11 -14 -19 -16 -16 -7 7 7
37 17 37 6 0 5 -9 -1 -21z m-1667 -9 c-3 -11 -9 -20 -14 -20 -11 0 -11 3 -3
24 9 23 23 20 17 -4z m1991 -19 c-4 -17 -9 -30 -11 -27 -3 2 -2 19 2 36 9 41
17 33 9 -9z m-1394 4 c0 -8 -2 -15 -4 -15 -2 0 -6 7 -10 15 -3 8 -1 15 4 15 6
0 10 -7 10 -15z m1030 -56 c-7 -11 -14 -19 -16 -16 -7 7 7 37 17 37 6 0 5 -9
-1 -21z m-1663 -21 c-3 -7 -5 -2 -5 12 0 14 2 19 5 13 2 -7 2 -19 0 -25z m656
2 c3 -11 1 -20 -4 -20 -5 0 -9 2 -9 4 0 2 -3 11 -6 20 -3 9 -2 16 4 16 5 0 12
-9 15 -20z m1344 -52 c-3 -8 -6 -5 -6 6 -1 11 2 17 5 13 3 -3 4 -12 1 -19z
m-383 -3 c-4 -8 -10 -15 -15 -15 -4 0 -6 7 -3 15 4 8 10 15 15 15 4 0 6 -7 3
-15z m-1614 -25 c0 -11 -2 -20 -4 -20 -2 0 -6 9 -9 20 -3 11 -1 20 4 20 5 0 9
-9 9 -20z m660 -4 c0 -8 -4 -18 -10 -21 -5 -3 -10 3 -10 14 0 12 5 21 10 21 6
0 10 -6 10 -14z m905 -35 c-3 -6 -14 -11 -23 -11 -13 0 -13 2 4 14 21 15 30
14 19 -3z m-1550 -41 c3 -5 1 -10 -4 -10 -6 0 -11 5 -11 10 0 6 2 10 4 10 3 0
8 -4 11 -10z m615 -20 c0 -11 -4 -20 -9 -20 -5 0 -7 9 -4 20 3 11 7 20 9 20 2
0 4 -9 4 -20z m860 5 c-7 -8 -18 -15 -24 -15 -6 0 -2 7 8 15 25 19 32 19 16 0z
m459 -64 c-7 -23 -14 -39 -16 -37 -3 2 1 23 8 45 7 23 14 39 16 37 3 -2 -1
-23 -8 -45z m-1044 19 c3 -5 -1 -10 -9 -10 -9 0 -16 5 -16 10 0 6 4 10 9 10 6
0 13 -4 16 -10z m502 -7 c-9 -9 -20 -13 -24 -9 -4 4 -1 11 7 16 25 16 35 11
17 -7z m-823 -37 c-3 -9 -10 -13 -16 -10 -5 3 -4 12 3 20 15 18 22 13 13 -10z
m396 14 c13 -8 13 -10 -2 -10 -9 0 -20 5 -23 10 -8 13 5 13 25 0z m360 1 c0
-5 -9 -11 -20 -14 -11 -3 -20 -1 -20 3 0 5 8 11 18 13 9 3 18 5 20 6 1 0 2 -3
2 -8z m-270 -30 c0 -5 -9 -7 -20 -4 -11 3 -20 7 -20 9 0 2 9 4 20 4 11 0 20
-4 20 -9z m175 -1 c-27 -12 -35 -12 -35 0 0 6 12 10 28 9 24 0 25 -1 7 -9z
m-82 -7 c-7 -2 -21 -2 -30 0 -10 3 -4 5 12 5 17 0 24 -2 18 -5z m-623 -22 c0
-5 -7 -12 -16 -15 -24 -9 -28 -7 -14 9 14 17 30 20 30 6z m-340 -47 c0 -2 -7
-4 -15 -4 -8 0 -15 4 -15 10 0 5 7 7 15 4 8 -4 15 -8 15 -10z m940 12 c0 -9
-40 -13 -46 -5 -3 5 6 9 20 9 14 0 26 -2 26 -4z m-685 -16 c-3 -5 -14 -10 -23
-10 -15 0 -15 2 -2 10 20 13 33 13 25 0z m590 0 c-3 -5 -14 -10 -23 -10 -15 0
-15 2 -2 10 20 13 33 13 25 0z m168 3 c-7 -2 -19 -2 -25 0 -7 3 -2 5 12 5 14
0 19 -2 13 -5z m-933 -23 c0 -13 -11 -13 -30 0 -12 8 -11 10 8 10 12 0 22 -4
22 -10z m90 0 c0 -5 -9 -10 -20 -10 -11 0 -20 5 -20 10 0 6 9 10 20 10 11 0
20 -4 20 -10z m915 -1 c11 -17 -1 -21 -15 -4 -8 9 -8 15 -2 15 6 0 14 -5 17
-11z m1176 -83 c-14 -36 -22 -33 -9 5 6 16 12 28 14 26 3 -2 0 -16 -5 -31z
m-1021 -87 c0 -6 -4 -7 -10 -4 -5 3 -10 11 -10 16 0 6 5 7 10 4 6 -3 10 -11
10 -16z m976 -26 c-8 -15 -15 -25 -16 -21 0 12 23 58 27 54 3 -2 -2 -17 -11
-33z m-959 -55 c-3 -7 -5 -2 -5 12 0 14 2 19 5 13 2 -7 2 -19 0 -25z m923 -38
c-6 -12 -14 -20 -17 -17 -2 3 1 14 8 26 17 26 24 19 9 -9z m-923 -52 c-3 -7
-5 -2 -5 12 0 14 2 19 5 13 2 -7 2 -19 0 -25z m879 -45 c-8 -15 -15 -22 -16
-15 0 14 22 53 28 47 2 -2 -3 -16 -12 -32z m-896 -34 c-7 -11 -14 -19 -16 -16
-7 7 7 37 17 37 6 0 5 -9 -1 -21z m860 -49 c-6 -12 -14 -20 -17 -17 -2 3 1 14
8 26 17 26 24 19 9 -9z m-900 -25 c-7 -8 -17 -15 -22 -15 -6 0 -5 7 2 15 7 8
17 15 22 15 6 0 5 -7 -2 -15z m847 -82 c-44 -93 -141 -269 -194 -351 -29 -45
-53 -85 -53 -88 0 -2 -17 -27 -37 -54 -21 -27 -60 -79 -88 -115 -27 -36 -51
-61 -53 -56 -2 5 32 56 76 113 127 168 171 236 287 456 76 141 104 185 62 95z
m-917 12 c-7 -9 -15 -13 -18 -10 -3 2 1 11 8 20 7 9 15 13 18 10 3 -2 -1 -11
-8 -20z m-80 -45 c-24 -15 -37 -11 -16 5 11 8 22 12 25 9 3 -3 -1 -9 -9 -14z
m-170 -10 c8 -5 11 -10 5 -10 -5 0 -17 5 -25 10 -8 5 -10 10 -5 10 6 0 17 -5
25 -10z m93 -7 c-7 -2 -21 -2 -30 0 -10 3 -4 5 12 5 17 0 24 -2 18 -5z"/>
<path d="M2625 2219 c-21 -5 -43 -15 -47 -22 -4 -7 -8 -8 -8 -1 0 11 -147 -21
-167 -38 -21 -17 -74 -139 -68 -156 6 -17 86 -81 118 -94 10 -4 65 4 127 20
123 30 138 46 75 83 -43 26 -48 63 -11 81 36 16 53 62 35 94 -11 22 -11 27 1
34 13 8 13 10 0 9 -8 -1 -33 -5 -55 -10z m-65 -89 c0 -11 -4 -20 -9 -20 -5 0
-7 9 -4 20 3 11 7 20 9 20 2 0 4 -9 4 -20z m0 -90 c0 -11 -4 -20 -10 -20 -5 0
-10 9 -10 20 0 11 5 20 10 20 6 0 10 -9 10 -20z"/>
<path d="M925 1799 c-44 -10 -112 -26 -150 -34 -39 -9 -85 -24 -102 -35 -36
-22 -67 -63 -61 -82 3 -7 12 1 22 18 10 17 37 39 60 49 41 19 63 25 256 65 58
12 109 26 115 31 15 14 -53 9 -140 -12z"/>
<path d="M616 1622 c-3 -5 -1 -22 4 -38 8 -28 8 -28 7 8 -2 40 -3 43 -11 30z"/>
<path d="M920 1620 c0 -17 -98 -60 -136 -60 -21 0 -46 7 -56 17 -10 9 -18 11
-18 6 0 -45 120 -50 181 -7 21 15 39 33 39 40 0 8 -2 14 -5 14 -3 0 -5 -4 -5
-10z"/>
<path d="M1379 722 c-21 -2 -28 -10 -33 -34 -3 -18 -3 -35 1 -39 22 -20 233
-40 233 -21 0 7 -127 81 -160 92 -8 3 -27 4 -41 2z"/>
<path d="M922 682 c-8 -15 -16 -32 -18 -38 -7 -15 87 -28 96 -14 4 6 5 23 2
39 -3 22 -8 27 -22 24 -10 -3 -21 0 -24 6 -11 17 -20 13 -34 -17z"/>
</g>
</svg>
